<?xml version="1.0" encoding="utf-8"?>
<!DOCTYPE svg PUBLIC "-//W3C//DTD SVG 1.0//EN" "http://www.w3.org/TR/2001/REC-SVG-20010904/DTD/svg10.dtd">
<svg version="1.0" xmlns="http://www.w3.org/2000/svg" width="612px" height="612px" viewBox="0 0 612 612" preserveAspectRatio="xMidYMid meet">
 <g fill="#000000">
  <path d="M243.25 433.75 c-17.50 -1.95 -33.45 -7.05 -49.75 -16 -27.55 -15.10 -51.05 -23.35 -71.80 -25.20 -13.65 -1.25 -26.40 3.65 -30.85 11.80 -1.55 2.95 -2.85 7.95 -2.85 11.30 0 2.90 -0.95 4.90 -3.15 6.55 -1.50 1.15 -2.15 1.30 -6.05 1.30 l-4.35 0 -2.10 -1.95 -2.10 -2 0 -7.15 c0 -7.85 0.80 -11.60 3.75 -17.40 5.50 -10.90 17.70 -18.40 33.40 -20.50 5.70 -0.80 19.10 -0.40 26.60 0.75 21.20 3.25 40.35 10.55 74 28.25 10 5.25 20.55 8.90 32 11.05 6.35 1.15 22.15 1.85 27.30 1.20 l2.95 -0.40 -4.60 -1.15 c-9.55 -2.45 -21.80 -7.75 -31.40 -13.55 -14.55 -8.85 -29.15 -23.35 -38.25 -37.90 -9.30 -14.90 -15.40 -32.10 -17.55 -49.50 -0.80 -6.50 -0.80 -23.60 -0.05 -30 5.90 -48.40 39 -87.60 85.35 -101 11.50 -3.35 20.60 -4.50 34.75 -4.50 20.65 0.05 36.25 3.60 53.85 12.30 31.30 15.55 53.95 43.60 62.35 77.30 2.85 11.25 3.50 16.85 3.50 30.15 0.05 12.40 -0.40 16.90 -2.55 27.25 -7.55 36.20 -33.15 67.70 -67.65 83.25 -2.05 0.90 -6.05 3 -8.90 4.60 -16 9.20 -36.20 16.50 -54.35 19.65 -12.60 2.20 -29.45 2.80 -41.50 1.50z m65.60 -34.70 c0.55 -0.30 0.20 -0.95 -1.45 -2.85 -8.65 -9.75 -17.30 -22.60 -23.25 -34.55 l-4.30 -8.60 -5.30 -2.10 c-2.90 -1.15 -6.60 -2.75 -8.15 -3.50 -1.60 -0.80 -3 -1.45 -3.15 -1.45 -0.30 0 1.25 3.95 4.10 10.40 6.20 13.95 16.15 28.80 26.55 39.70 l3.85 4.05 5.20 -0.35 c2.85 -0.20 5.55 -0.50 5.90 -0.75z m-44.95 -9.40 l-3.60 -5.35 -1.10 3 c-1.45 3.80 -1.45 4 0.20 4.60 0.75 0.30 2.80 1.10 4.60 1.80 1.80 0.70 3.30 1.25 3.40 1.25 0.05 0.05 -1.50 -2.35 -3.50 -5.30z m72.50 2.30 c2.15 -0.80 4 -1.65 4.20 -1.85 0.20 -0.20 -2.05 -3.15 -4.90 -6.60 -2.90 -3.45 -7.60 -9.80 -10.50 -14.10 l-5.30 -7.90 -2.05 0 c-1.15 -0.05 -4.50 -0.45 -7.45 -0.95 -3 -0.45 -5.40 -0.80 -5.40 -0.70 0 0.10 1.15 2 2.60 4.30 3.15 5.05 8.60 12.50 12.35 16.85 3.85 4.55 11.65 12.50 12.20 12.50 0.25 0 2.15 -0.70 4.25 -1.55z m-94.75 -12.25 c0.25 -0.80 1.90 -5.15 3.70 -9.65 l3.30 -8.20 -1.15 -3.05 c-0.60 -1.70 -1.85 -5.15 -2.75 -7.70 -0.90 -2.55 -1.75 -4.35 -1.90 -4 -4.45 10.80 -6.60 17 -8.55 24.25 l-1.20 4.60 3.55 2.75 c2 1.55 3.80 2.70 4.05 2.65 0.30 -0.10 0.70 -0.80 0.95 -1.65z m122.60 -4.95 c2.50 -2.10 5.60 -5 6.90 -6.40 3.55 -3.80 8.90 -10.45 8.65 -10.70 -0.15 -0.15 -1.90 0.15 -3.90 0.60 -6.80 1.55 -13.60 2.65 -19.90 3.25 -3.45 0.35 -7.55 0.75 -9.15 0.95 l-2.90 0.30 4.30 5.40 c6.80 8.50 9.70 11.40 10.65 10.90 0.50 -0.25 2.90 -2.20 5.35 -4.30z m-138.30 -36.50 c1.70 -3.85 3.75 -8.10 4.50 -9.45 l1.45 -2.45 -4.75 -3.95 c-2.60 -2.20 -4.75 -3.90 -4.85 -3.85 -0.20 0.35 -3.25 7.25 -4.45 10.20 -1.50 3.70 -4.45 12.75 -5.75 17.75 l-0.95 3.75 1.25 2 c0.70 1.10 2.15 3.30 3.30 4.85 l2 2.90 2.55 -7.40 c1.40 -4.05 3.95 -10.50 5.70 -14.35z m118.05 5.75 c14.50 -0.95 28.60 -3.65 40.70 -7.85 7.80 -2.70 8.20 -3.15 1.70 -1.90 -11.50 2.20 -32 2.90 -45.90 1.55 -32.80 -3.20 -61.70 -14.75 -88 -35.10 -3.15 -2.45 -9.70 -8.35 -14.50 -13.20 -11 -11 -18.45 -20.50 -26 -33.20 l-2.95 -4.90 -1 1.65 c-0.55 0.90 -1.85 3.55 -2.90 5.85 l-1.85 4.25 1.95 3.75 c1.10 2.10 4 6.80 6.40 10.50 26.25 40.10 70.05 65.70 117.30 68.55 3.45 0.25 6.40 0.45 6.55 0.45 0.15 0.05 3.95 -0.15 8.50 -0.40z m-143.25 -23.85 c0.50 -1.35 2.35 -5.60 4.15 -9.55 l3.20 -7.10 -2.15 -2.80 c-1.20 -1.50 -3.80 -5 -5.80 -7.75 l-3.55 -4.95 -0.40 4.40 c-0.60 7.50 0.30 17.80 2.40 27.50 0.30 1.40 0.70 2.60 0.90 2.60 0.20 0 0.75 -1.05 1.25 -2.35z m164.85 -2.15 c8.85 -0.65 19.80 -2.35 27.65 -4.35 5.30 -1.35 5.50 -1.45 5.65 -2.85 0.20 -1.40 0.15 -1.40 -2 -1.10 -5.25 0.70 -27.55 0.90 -34.45 0.35 -39.65 -3.35 -76.15 -20.25 -104.20 -48.30 -10.05 -10.05 -19.05 -21.55 -25.85 -33.10 -3.50 -5.95 -3.25 -5.90 -8 -0.50 l-2.80 3.20 2.25 4.45 c23.15 45.40 69.05 76.75 119.45 81.70 5.35 0.50 8.45 0.75 12.55 0.90 1.15 0.05 5.50 -0.15 9.75 -0.40z m28.05 -26.75 c2.95 -0.35 5.55 -0.80 5.70 -0.95 0.35 -0.35 -0.60 -8.20 -1.05 -8.65 -0.45 -0.45 -11.90 0.80 -19.30 2.15 -7.20 1.30 -11.25 2.35 -19.25 4.80 -4.45 1.40 -4.85 1.60 -3.60 1.95 1.30 0.35 8.90 1.20 15.10 1.65 4.10 0.30 16.60 -0.20 22.40 -0.95z m-50.05 -17.20 c14.70 -5.50 31.35 -9.30 45.30 -10.35 5.25 -0.40 5.05 0 2.85 -5 l-1.15 -2.60 -4.40 -0.35 c-6.30 -0.45 -20.65 0.75 -29.95 2.55 -10.10 1.95 -23.95 6.10 -31.55 9.45 -8.90 3.90 -8.65 3.75 -8.95 6 -0.70 4.35 -0.45 4.65 4.50 6.70 l4.45 1.90 6.05 -2.90 c3.30 -1.55 9.10 -4 12.85 -5.40z m-45.55 -12.35 c1.50 -20.10 7.35 -41.05 16.55 -59.35 1.40 -2.85 1.80 -4.15 1.45 -4.50 -0.65 -0.65 -0.80 -0.55 -6.55 8.10 -10.05 15 -17.50 32.75 -21.45 51.15 l-0.95 4.35 1.85 1.25 c1 0.65 3.25 2.25 5.05 3.45 1.80 1.25 3.30 2.20 3.40 2.10 0.10 -0.05 0.35 -3.05 0.65 -6.55z m28.70 -15.05 c14.80 -5.10 30.20 -8.05 46.85 -9.05 l5.85 -0.35 -2.50 -3 c-1.35 -1.65 -3.10 -3.20 -3.85 -3.40 -2.10 -0.65 -21.30 -0.60 -26.85 0.10 -9.90 1.20 -23.35 3.90 -24.25 4.85 -0.40 0.40 -3.50 12.25 -3.50 13.30 0 0.30 0.40 0.35 0.90 0.15 0.45 -0.20 3.75 -1.40 7.35 -2.60z m-54.30 -5.20 c3.55 -13.15 9.60 -27.70 15.65 -37.80 0.55 -0.90 0.85 -1.65 0.70 -1.65 -0.50 0 -6.80 8.45 -10.75 14.50 -3.90 5.90 -12.55 22.40 -12.55 23.90 0 0.70 5 6.75 5.35 6.40 0.10 -0.10 0.85 -2.50 1.60 -5.35z m-17.25 -24.15 c1.60 -3.15 4.25 -7.80 5.85 -10.35 2.90 -4.45 2.95 -4.55 1.60 -4.25 -1.55 0.40 -13.50 6.15 -16.05 7.75 l-1.65 1.05 0.85 1.65 c1.55 3.05 5.75 9.85 6.10 9.85 0.20 0 1.65 -2.60 3.30 -5.70z m77.85 -3.30 c1.50 -0.30 6.15 -0.85 10.40 -1.25 4.25 -0.40 7.80 -0.85 7.90 -0.95 0.30 -0.30 -3.95 -2.65 -10 -5.60 l-5.55 -2.65 -1.20 2.10 c-1.75 3.05 -4.65 8.85 -4.40 8.85 0.10 0 1.40 -0.25 2.85 -0.50z"/>
 </g>
 <g fill="#ffffff">
  <path d="M0 306 l0 -306 306 0 306 0 0 306 0 306 -306 0 -306 0 0 -306z m271.75 126.25 c23 -2.35 46 -9.75 65.85 -21.15 2.85 -1.60 6.85 -3.70 8.90 -4.60 19.30 -8.70 35.95 -22.35 48.25 -39.55 11.65 -16.30 18.45 -33.70 21.30 -54.45 1 -6.90 0.85 -23.85 -0.25 -31 -5.95 -39.60 -29.70 -72.45 -64.95 -89.95 -17.10 -8.45 -33.25 -12.25 -52.35 -12.30 -19.50 0 -35.55 3.65 -52.80 12.05 -11.30 5.50 -22.55 13.55 -31.70 22.70 -19 18.95 -30.85 43.60 -34.05 70.75 -0.80 6.35 -0.75 20.50 0.05 27 2.05 17.30 8.20 34.60 17.50 49.50 9.10 14.55 23.70 29.05 38.25 37.90 12.35 7.50 28.85 13.85 40.75 15.65 8 1.20 -1.40 2.45 -18.50 2.45 -11.65 0 -13.95 -0.15 -19.25 -1.15 -11.80 -2.25 -22.25 -5.85 -32.25 -11.10 -28.75 -15.10 -44.75 -21.75 -62.60 -26 -12.75 -3 -26.35 -4.20 -35 -3 -15.70 2.10 -27.90 9.60 -33.40 20.50 -2.70 5.35 -3.75 9.70 -3.75 15.90 l0 5.65 2.10 2 c1.95 1.80 2.35 1.95 4.95 1.95 4.70 0 7.70 -3.05 7.70 -7.85 0 -3.35 1.30 -8.35 2.85 -11.30 3.50 -6.40 12.30 -10.85 23.90 -12.10 3.45 -0.35 13.50 0.40 19.75 1.55 18.15 3.25 38.95 11.30 62 23.95 24.45 13.40 50.05 18.75 76.75 16z"/>
  <path d="M292.45 397.65 c-9.90 -10.35 -18.80 -23.40 -25.25 -36.90 -3.35 -7.05 -7.50 -17.60 -7.10 -18 0.15 -0.15 3.15 1.05 6.70 2.70 3.55 1.60 8.25 3.65 10.50 4.50 l4 1.55 4.35 8.65 c6.30 12.65 14.70 24.95 24.50 36 1.90 2.15 3.40 3.95 3.30 4.05 -0.40 0.40 -10.10 1.30 -13.60 1.30 l-3.70 0 -3.70 -3.85z"/>
  <path d="M265.75 396.30 c-7.20 -2.40 -9.75 -3.60 -9.75 -4.65 0 -1.10 3.30 -10.65 3.85 -11.20 0.25 -0.25 1.40 1.20 2.60 3.20 1.25 2 3.90 5.90 5.90 8.70 2 2.80 3.65 5.20 3.65 5.35 0 0.55 -1.20 0.25 -6.25 -1.40z"/>
  <path d="M327.65 392.40 c-5.05 -4.90 -11.60 -12.50 -16.20 -18.90 -4.20 -5.80 -10.15 -15.45 -9.80 -15.85 0.15 -0.10 3.85 0.35 8.20 1.05 4.35 0.70 8.75 1.30 9.75 1.30 1.80 0 1.90 0.10 6.55 7.15 4.65 7 9.05 12.70 14.95 19.40 3 3.45 3.35 4.15 2.30 4.60 -6.40 2.70 -11.65 4.85 -11.80 4.85 -0.10 0 -1.90 -1.65 -3.95 -3.60z"/>
  <path d="M239.50 383.35 c-1.25 -0.85 -3.65 -2.65 -5.35 -4 -2.80 -2.15 -3.10 -2.60 -2.85 -3.75 1.35 -5.60 3.95 -14.30 5.45 -18.40 2.75 -7.35 6.40 -15.65 6.75 -15.45 0.20 0.15 0.75 1.50 1.15 3.10 0.45 1.60 2.05 6.10 3.50 10.05 l2.70 7.10 -2.65 6.15 c-1.45 3.40 -3.45 8.50 -4.45 11.35 -0.95 2.85 -1.85 5.25 -1.90 5.30 -0.05 0.05 -1.10 -0.60 -2.35 -1.45z"/>
  <path d="M354.15 378.35 c-3.50 -3.80 -11.10 -13.15 -12.75 -15.75 l-0.90 -1.45 5.35 -0.35 c11.45 -0.70 21.75 -2.30 33.05 -5.15 2.85 -0.70 5.30 -1.15 5.45 -1 0.65 0.65 -7.60 11.05 -13.10 16.55 -4.05 4.05 -12.20 10.75 -13.10 10.80 -0.30 0 -2.10 -1.65 -4 -3.65z"/>
  <path d="M215.65 360.60 c-3.95 -5.30 -6.15 -8.95 -6.15 -10.25 0 -4.05 5.45 -20.35 10.65 -31.95 1.55 -3.40 1.95 -3.70 3.15 -2.30 0.55 0.55 3 2.70 5.45 4.80 2.50 2.05 4.75 4.10 5.10 4.45 0.45 0.55 0.15 1.45 -1.40 4.10 -3.10 5.40 -8.15 17.20 -11.15 26 -1.50 4.50 -2.85 8.25 -2.95 8.35 -0.10 0.10 -1.30 -1.30 -2.70 -3.20z"/>
  <path d="M327.45 345.45 c-17 -1 -34.15 -5.15 -50.80 -12.25 -26.10 -11.15 -50.20 -31.50 -66.30 -56 -6.40 -9.75 -9.05 -14.90 -8.65 -16.85 0.35 -1.80 6.70 -14.85 7.25 -14.85 0.20 0 1.55 2.15 3 4.75 3.75 6.55 8.45 13.55 14.05 20.85 5.95 7.70 20.35 22.20 28 28.10 18.95 14.65 38.90 24.55 61.75 30.55 20.80 5.50 47.95 6.75 67.95 3.20 4.30 -0.75 10.40 -1.95 11.45 -2.25 0.55 -0.20 0.85 0 0.85 0.55 0 1.45 -1.45 3.60 -2.60 3.90 -0.65 0.15 -3.40 1.10 -6.15 2.10 -11.70 4.30 -26.85 7.30 -41.75 8.25 -8.90 0.55 -8.70 0.55 -18.05 -0.05z"/>
  <path d="M198 324.90 c-2.45 -9 -3.15 -14.60 -3.20 -25.40 -0.05 -9.85 0.40 -16 1.15 -16 0.15 0 0.70 0.65 1.20 1.45 1.40 2.40 7.35 10.60 10.50 14.45 l2.95 3.65 -3.10 6.60 c-3.05 6.50 -7.50 17.30 -7.50 18.30 0 0.25 -0.20 0.60 -0.45 0.75 -0.25 0.15 -0.95 -1.55 -1.55 -3.80z"/>
  <path d="M349.75 319.65 c-13.70 -0.80 -26.55 -3.15 -38.35 -6.95 -38.75 -12.45 -71.15 -40 -89.35 -76 -1.40 -2.80 -2.55 -5.45 -2.55 -5.85 0 -0.40 2.30 -3 5.05 -5.80 l5.10 -5.15 0.85 1.45 c0.45 0.75 2.10 3.55 3.60 6.15 6.55 11.10 15.65 22.80 25.65 32.75 28.05 28.05 64.55 44.95 104.20 48.30 7.90 0.65 26.10 0.35 32.75 -0.55 2.15 -0.30 4.05 -0.40 4.20 -0.25 0.15 0.10 0.05 1.55 -0.20 3.10 l-0.45 2.90 -5.50 1.40 c-13.90 3.55 -31.65 5.35 -45 4.50z"/>
  <path d="M366.55 293.50 c-6.25 -0.50 -16.10 -1.85 -17.70 -2.45 -1.95 -0.70 15.20 -6.15 26.25 -8.30 7.45 -1.45 17.80 -2.75 22 -2.75 2.85 0 2.85 0 3.15 1.65 0.65 3.45 1.10 9.60 0.75 10.05 -1.30 1.40 -24.25 2.60 -34.45 1.80z"/>
  <path d="M319.50 282.30 l-5.25 -2.15 -0.15 -2.95 c-0.10 -1.65 -0.05 -3.85 0.15 -5 0.30 -2.20 0.05 -2.05 8.95 -5.95 7.55 -3.30 21.20 -7.40 31.55 -9.45 9.65 -1.90 28 -3.25 34.25 -2.45 l3.25 0.40 1.90 4.65 c1.05 2.55 1.75 4.80 1.65 5.05 -0.15 0.20 -2.45 0.55 -5.15 0.75 -18.60 1.30 -40.65 7.30 -59.10 16.10 -3.70 1.75 -6.70 3.20 -6.75 3.20 -0.05 -0.05 -2.40 -1 -5.30 -2.20z"/>
  <path d="M295.50 269.80 c-1.25 -0.85 -4 -2.80 -6.10 -4.25 -4.50 -3.15 -4.40 -2.80 -2.85 -9.95 3.90 -18.35 11.40 -36.15 21.45 -51.15 6.25 -9.35 5.50 -8.65 8.55 -8.30 1.40 0.20 2.70 0.40 2.80 0.55 0.10 0.10 -1 2.65 -2.55 5.65 -10.05 20.10 -15.70 40.05 -17.30 61.15 -0.25 3.70 -0.50 7.05 -0.50 7.40 0 0.95 -1.05 0.65 -3.50 -1.10z"/>
  <path d="M316.85 248.65 c0.90 -5.10 3.15 -13.80 3.65 -14.35 0.90 -0.95 14.35 -3.65 24.25 -4.85 5.60 -0.70 25.25 -0.90 28.80 -0.30 2.20 0.35 2.55 0.70 5.90 4.85 1.95 2.45 3.55 4.55 3.55 4.65 0 0.10 -3.30 0.35 -7.35 0.50 -18 0.75 -36.75 4.65 -53.55 11.15 -3.15 1.20 -5.75 2.20 -5.85 2.20 -0.05 0 0.20 -1.75 0.60 -3.85z"/>
  <path d="M267 246 l-4.15 -4.55 1.40 -3.35 c5.75 -13.80 16.90 -31.45 26.25 -41.40 1.65 -1.80 2.40 -2.20 3.80 -2.20 1.30 0 1.65 0.15 1.40 0.65 -0.25 0.30 -1.35 2.05 -2.45 3.85 -3.65 5.70 -8.10 14.05 -11.15 21 -3.95 8.90 -6.55 16.60 -9.60 28.40 -0.30 1.15 -0.75 2.10 -0.95 2.10 -0.25 0 -2.30 -2.05 -4.55 -4.50z"/>
  <path d="M248.70 222.15 c-1.70 -2.70 -3.80 -6.35 -4.70 -8.10 l-1.60 -3.20 1.15 -0.95 c3.50 -2.70 21.90 -10.90 24.40 -10.90 0.70 0 -0.20 1.65 -3.65 6.90 -2.50 3.75 -6.20 10.05 -8.20 14 -2 3.90 -3.80 7.10 -4 7.10 -0.20 0 -1.75 -2.20 -3.40 -4.85z"/>
  <path d="M327 216.30 c0.05 -1.25 7.40 -14.55 8.15 -14.70 1.15 -0.25 13.30 5.70 18.35 8.95 l4.25 2.70 -8.75 0.65 c-4.80 0.35 -11.75 1.15 -15.35 1.80 -4.40 0.75 -6.65 0.95 -6.65 0.60z"/>
 </g>
</svg>